<mxfile host="app.diagrams.net" modified="2020-08-18T21:33:04.185Z" agent="5.0 (Macintosh; Intel Mac OS X 10_15_3) AppleWebKit/605.1.15 (KHTML, like Gecko) Version/13.0.5 Safari/605.1.15" etag="FoIQs8PKoLlSRjGkmKPp" version="13.6.3" type="github">
  <diagram name="Page-1" id="74e2e168-ea6b-b213-b513-2b3c1d86103e">
    <mxGraphModel dx="2286" dy="812" grid="1" gridSize="10" guides="1" tooltips="1" connect="1" arrows="1" fold="1" page="1" pageScale="1" pageWidth="1100" pageHeight="850" background="#ffffff" math="0" shadow="0">
      <root>
        <mxCell id="0" />
        <mxCell id="1" parent="0" />
        <mxCell id="Hkc0Ta2Sa7C-OMEJBAnt-20" value="" style="edgeStyle=orthogonalEdgeStyle;rounded=0;orthogonalLoop=1;jettySize=auto;html=1;" edge="1" parent="1" source="Hkc0Ta2Sa7C-OMEJBAnt-13">
          <mxGeometry relative="1" as="geometry">
            <mxPoint x="200" y="460" as="targetPoint" />
            <Array as="points">
              <mxPoint x="200" y="380" />
              <mxPoint x="200" y="380" />
            </Array>
          </mxGeometry>
        </mxCell>
        <mxCell id="Hkc0Ta2Sa7C-OMEJBAnt-22" value="" style="edgeStyle=orthogonalEdgeStyle;rounded=0;orthogonalLoop=1;jettySize=auto;html=1;" edge="1" parent="1" source="Hkc0Ta2Sa7C-OMEJBAnt-13">
          <mxGeometry relative="1" as="geometry">
            <mxPoint x="60" y="460" as="targetPoint" />
          </mxGeometry>
        </mxCell>
        <mxCell id="Hkc0Ta2Sa7C-OMEJBAnt-24" value="" style="edgeStyle=orthogonalEdgeStyle;rounded=0;orthogonalLoop=1;jettySize=auto;html=1;" edge="1" parent="1" source="Hkc0Ta2Sa7C-OMEJBAnt-13">
          <mxGeometry relative="1" as="geometry">
            <mxPoint x="370" y="460" as="targetPoint" />
          </mxGeometry>
        </mxCell>
        <mxCell id="Hkc0Ta2Sa7C-OMEJBAnt-13" value="&lt;font style=&quot;font-size: 18px&quot;&gt;Features&lt;/font&gt;" style="whiteSpace=wrap;html=1;rounded=1;shadow=0;fontFamily=Verdana;fontSize=8;strokeWidth=1;" vertex="1" parent="1">
          <mxGeometry x="140" y="290" width="125" height="70" as="geometry" />
        </mxCell>
        <mxCell id="Hkc0Ta2Sa7C-OMEJBAnt-14" value="" style="edgeStyle=orthogonalEdgeStyle;rounded=0;orthogonalLoop=1;jettySize=auto;html=1;" edge="1" parent="1" source="77e6c97f196da883-9" target="Hkc0Ta2Sa7C-OMEJBAnt-13">
          <mxGeometry relative="1" as="geometry" />
        </mxCell>
        <mxCell id="77e6c97f196da883-1" value="Pool" style="swimlane;html=1;childLayout=stackLayout;startSize=20;rounded=0;shadow=0;labelBackgroundColor=none;strokeWidth=1;fontFamily=Verdana;fontSize=8;align=center;" parent="1" vertex="1">
          <mxGeometry x="-60" width="1460" height="820" as="geometry" />
        </mxCell>
        <mxCell id="77e6c97f196da883-2" value="Lane 1" style="swimlane;html=1;startSize=20;" parent="77e6c97f196da883-1" vertex="1">
          <mxGeometry y="20" width="270" height="800" as="geometry" />
        </mxCell>
        <mxCell id="Hkc0Ta2Sa7C-OMEJBAnt-41" value="&lt;font style=&quot;font-family: &amp;#34;verdana&amp;#34; ; font-size: 14px&quot;&gt;Extras (Services not available&lt;/font&gt;&lt;span style=&quot;font-family: &amp;#34;verdana&amp;#34; ; font-size: 8px&quot;&gt;)&lt;/span&gt;" style="ellipse;whiteSpace=wrap;html=1;" vertex="1" parent="77e6c97f196da883-2">
          <mxGeometry x="60" y="440" width="120" height="80" as="geometry" />
        </mxCell>
        <mxCell id="Hkc0Ta2Sa7C-OMEJBAnt-40" value="&lt;span style=&quot;font-family: &amp;#34;verdana&amp;#34;&quot;&gt;Dropdown(services)&lt;/span&gt;" style="ellipse;whiteSpace=wrap;html=1;" vertex="1" parent="77e6c97f196da883-2">
          <mxGeometry x="200" y="440" width="120" height="80" as="geometry" />
        </mxCell>
        <mxCell id="77e6c97f196da883-3" value="Lane 2" style="swimlane;html=1;startSize=20;" parent="77e6c97f196da883-1" vertex="1">
          <mxGeometry x="270" y="20" width="240" height="800" as="geometry" />
        </mxCell>
        <mxCell id="77e6c97f196da883-9" value="&lt;font style=&quot;font-size: 13px&quot;&gt;Customer Model&lt;br&gt;(auth.user extension)&lt;/font&gt;" style="rounded=1;whiteSpace=wrap;html=1;shadow=0;labelBackgroundColor=none;strokeWidth=1;fontFamily=Verdana;fontSize=8;align=center;arcSize=0;" parent="77e6c97f196da883-3" vertex="1">
          <mxGeometry x="-40" y="90" width="160" height="80" as="geometry" />
        </mxCell>
        <mxCell id="Hkc0Ta2Sa7C-OMEJBAnt-38" value="&lt;span style=&quot;font-family: &amp;#34;verdana&amp;#34; ; font-size: 16px&quot;&gt;Ratings&lt;/span&gt;" style="ellipse;whiteSpace=wrap;html=1;" vertex="1" parent="77e6c97f196da883-3">
          <mxGeometry x="100" y="440" width="120" height="80" as="geometry" />
        </mxCell>
        <mxCell id="77e6c97f196da883-4" value="Lane 3" style="swimlane;html=1;startSize=20;" parent="77e6c97f196da883-1" vertex="1">
          <mxGeometry x="510" y="20" width="180" height="800" as="geometry" />
        </mxCell>
        <mxCell id="Hkc0Ta2Sa7C-OMEJBAnt-36" value="&lt;font style=&quot;font-size: 27px&quot;&gt;M2M&lt;/font&gt;" style="rhombus;whiteSpace=wrap;html=1;" vertex="1" parent="77e6c97f196da883-4">
          <mxGeometry x="-20" y="260" width="120" height="135" as="geometry" />
        </mxCell>
        <mxCell id="77e6c97f196da883-5" value="Lane 4" style="swimlane;html=1;startSize=20;" parent="77e6c97f196da883-1" vertex="1">
          <mxGeometry x="690" y="20" width="160" height="800" as="geometry" />
        </mxCell>
        <mxCell id="Hkc0Ta2Sa7C-OMEJBAnt-3" value="" style="edgeStyle=orthogonalEdgeStyle;rounded=0;orthogonalLoop=1;jettySize=auto;html=1;" edge="1" parent="77e6c97f196da883-5" source="Hkc0Ta2Sa7C-OMEJBAnt-10" target="Hkc0Ta2Sa7C-OMEJBAnt-2">
          <mxGeometry relative="1" as="geometry">
            <mxPoint x="-30" y="140" as="sourcePoint" />
            <Array as="points">
              <mxPoint x="80" y="270" />
              <mxPoint x="80" y="270" />
            </Array>
          </mxGeometry>
        </mxCell>
        <mxCell id="Hkc0Ta2Sa7C-OMEJBAnt-10" value="&lt;font style=&quot;font-size: 14px&quot;&gt;Django Setup&lt;/font&gt;" style="ellipse;whiteSpace=wrap;html=1;aspect=fixed;" vertex="1" parent="77e6c97f196da883-5">
          <mxGeometry x="30" y="90" width="90" height="90" as="geometry" />
        </mxCell>
        <mxCell id="Hkc0Ta2Sa7C-OMEJBAnt-53" style="edgeStyle=orthogonalEdgeStyle;rounded=0;orthogonalLoop=1;jettySize=auto;html=1;exitX=0.5;exitY=1;exitDx=0;exitDy=0;" edge="1" parent="77e6c97f196da883-5" source="Hkc0Ta2Sa7C-OMEJBAnt-10" target="Hkc0Ta2Sa7C-OMEJBAnt-10">
          <mxGeometry relative="1" as="geometry" />
        </mxCell>
        <mxCell id="Hkc0Ta2Sa7C-OMEJBAnt-2" value="&lt;font style=&quot;font-size: 15px&quot;&gt;Services Model&lt;/font&gt;" style="whiteSpace=wrap;html=1;rounded=1;shadow=0;fontFamily=Verdana;fontSize=8;strokeWidth=1;" vertex="1" parent="77e6c97f196da883-5">
          <mxGeometry x="30" y="330" width="120" height="60" as="geometry" />
        </mxCell>
        <mxCell id="77e6c97f196da883-6" value="Lane 5" style="swimlane;html=1;startSize=20;" parent="77e6c97f196da883-1" vertex="1">
          <mxGeometry x="850" y="20" width="210" height="800" as="geometry" />
        </mxCell>
        <mxCell id="Hkc0Ta2Sa7C-OMEJBAnt-32" style="edgeStyle=orthogonalEdgeStyle;rounded=0;orthogonalLoop=1;jettySize=auto;html=1;exitX=0.75;exitY=1;exitDx=0;exitDy=0;" edge="1" parent="77e6c97f196da883-6">
          <mxGeometry relative="1" as="geometry">
            <mxPoint x="122" y="167.5" as="sourcePoint" />
            <mxPoint x="127" y="280" as="targetPoint" />
            <Array as="points">
              <mxPoint x="127" y="190" />
            </Array>
          </mxGeometry>
        </mxCell>
        <mxCell id="Hkc0Ta2Sa7C-OMEJBAnt-4" value="&lt;font style=&quot;font-size: 14px&quot;&gt;Service Provider Model(auth.user)&lt;/font&gt;" style="whiteSpace=wrap;html=1;rounded=1;shadow=0;fontFamily=Verdana;fontSize=8;strokeWidth=1;" vertex="1" parent="77e6c97f196da883-6">
          <mxGeometry x="30" y="102.5" width="120" height="65" as="geometry" />
        </mxCell>
        <mxCell id="Hkc0Ta2Sa7C-OMEJBAnt-30" value="&lt;span style=&quot;font-size: 27px&quot;&gt;?&lt;/span&gt;" style="rhombus;whiteSpace=wrap;html=1;rounded=1;shadow=0;fontFamily=Verdana;fontSize=8;strokeWidth=1;" vertex="1" parent="77e6c97f196da883-6">
          <mxGeometry x="40" y="280" width="170" height="160" as="geometry" />
        </mxCell>
        <mxCell id="Hkc0Ta2Sa7C-OMEJBAnt-31" value="" style="edgeStyle=orthogonalEdgeStyle;rounded=0;orthogonalLoop=1;jettySize=auto;html=1;" edge="1" parent="77e6c97f196da883-1" source="Hkc0Ta2Sa7C-OMEJBAnt-2" target="Hkc0Ta2Sa7C-OMEJBAnt-30">
          <mxGeometry relative="1" as="geometry" />
        </mxCell>
        <mxCell id="Hkc0Ta2Sa7C-OMEJBAnt-33" style="edgeStyle=orthogonalEdgeStyle;rounded=0;orthogonalLoop=1;jettySize=auto;html=1;entryX=0.5;entryY=0;entryDx=0;entryDy=0;exitX=0.706;exitY=1.05;exitDx=0;exitDy=0;exitPerimeter=0;" edge="1" parent="77e6c97f196da883-1" source="77e6c97f196da883-9" target="Hkc0Ta2Sa7C-OMEJBAnt-36">
          <mxGeometry relative="1" as="geometry">
            <mxPoint x="490" y="340" as="targetPoint" />
            <Array as="points">
              <mxPoint x="343" y="210" />
              <mxPoint x="550" y="210" />
            </Array>
          </mxGeometry>
        </mxCell>
        <mxCell id="77e6c97f196da883-7" value="Lane 6" style="swimlane;html=1;startSize=20;" parent="77e6c97f196da883-1" vertex="1">
          <mxGeometry x="1060" y="20" width="400" height="800" as="geometry" />
        </mxCell>
        <mxCell id="Hkc0Ta2Sa7C-OMEJBAnt-46" style="edgeStyle=orthogonalEdgeStyle;rounded=0;orthogonalLoop=1;jettySize=auto;html=1;exitX=1;exitY=0.5;exitDx=0;exitDy=0;entryX=0.5;entryY=0;entryDx=0;entryDy=0;" edge="1" parent="77e6c97f196da883-7" source="77e6c97f196da883-8" target="Hkc0Ta2Sa7C-OMEJBAnt-45">
          <mxGeometry relative="1" as="geometry" />
        </mxCell>
        <mxCell id="77e6c97f196da883-8" value="&lt;font style=&quot;font-size: 19px&quot;&gt;&lt;b&gt;START&lt;/b&gt;&lt;/font&gt;" style="rounded=1;whiteSpace=wrap;html=1;shadow=0;labelBackgroundColor=none;strokeWidth=1;fontFamily=Verdana;fontSize=8;align=center;" parent="77e6c97f196da883-7" vertex="1">
          <mxGeometry x="10" y="30" width="110" height="60" as="geometry" />
        </mxCell>
        <mxCell id="Hkc0Ta2Sa7C-OMEJBAnt-45" value="&lt;font style=&quot;font-size: 15px&quot;&gt;Angular&lt;br&gt;Setup&amp;nbsp;&lt;/font&gt;" style="ellipse;whiteSpace=wrap;html=1;aspect=fixed;" vertex="1" parent="77e6c97f196da883-7">
          <mxGeometry x="270" y="110" width="80" height="80" as="geometry" />
        </mxCell>
        <mxCell id="Hkc0Ta2Sa7C-OMEJBAnt-48" style="edgeStyle=orthogonalEdgeStyle;rounded=0;orthogonalLoop=1;jettySize=auto;html=1;exitX=1;exitY=0.5;exitDx=0;exitDy=0;entryX=0;entryY=0.5;entryDx=0;entryDy=0;" edge="1" parent="77e6c97f196da883-1" source="Hkc0Ta2Sa7C-OMEJBAnt-36" target="Hkc0Ta2Sa7C-OMEJBAnt-2">
          <mxGeometry relative="1" as="geometry" />
        </mxCell>
        <mxCell id="Hkc0Ta2Sa7C-OMEJBAnt-49" style="edgeStyle=orthogonalEdgeStyle;rounded=0;orthogonalLoop=1;jettySize=auto;html=1;entryX=1.013;entryY=0.6;entryDx=0;entryDy=0;entryPerimeter=0;" edge="1" parent="77e6c97f196da883-1" target="77e6c97f196da883-9">
          <mxGeometry relative="1" as="geometry">
            <mxPoint x="710" y="160" as="sourcePoint" />
            <Array as="points">
              <mxPoint x="710" y="158" />
            </Array>
          </mxGeometry>
        </mxCell>
        <mxCell id="77e6c97f196da883-26" style="edgeStyle=orthogonalEdgeStyle;rounded=1;html=1;labelBackgroundColor=none;startArrow=none;startFill=0;startSize=5;endArrow=classicThin;endFill=1;endSize=5;jettySize=auto;orthogonalLoop=1;strokeWidth=1;fontFamily=Verdana;fontSize=8;entryX=0.5;entryY=0;entryDx=0;entryDy=0;" parent="77e6c97f196da883-1" source="77e6c97f196da883-8" target="Hkc0Ta2Sa7C-OMEJBAnt-10" edge="1">
          <mxGeometry relative="1" as="geometry">
            <mxPoint x="710" y="130" as="targetPoint" />
            <Array as="points">
              <mxPoint x="765" y="80" />
            </Array>
          </mxGeometry>
        </mxCell>
        <mxCell id="Hkc0Ta2Sa7C-OMEJBAnt-54" style="edgeStyle=orthogonalEdgeStyle;rounded=0;orthogonalLoop=1;jettySize=auto;html=1;exitX=1;exitY=0.5;exitDx=0;exitDy=0;" edge="1" parent="77e6c97f196da883-1" source="Hkc0Ta2Sa7C-OMEJBAnt-10" target="Hkc0Ta2Sa7C-OMEJBAnt-4">
          <mxGeometry relative="1" as="geometry" />
        </mxCell>
      </root>
    </mxGraphModel>
  </diagram>
</mxfile>
